<?xml version="1.0" encoding="UTF-8"?>
<svg version="1.1" xmlns="http://www.w3.org/2000/svg" width="520" height="104">
<path d="M0 0 C171.6 0 343.2 0 520 0 C520 34.32 520 68.64 520 104 C348.4 104 176.8 104 0 104 C0 69.68 0 35.36 0 0 Z " fill="#FDFDFD" transform="translate(0,0)"/>
<path d="M0 0 C4.00373453 1.40130709 7.28905819 2.65118953 10 6 C10.94875 5.195625 11.8975 4.39125 12.875 3.5625 C16.59431309 0.40916934 18.94890802 -0.29660457 23.97265625 -0.21484375 C28.10238933 0.22279656 30.34946005 2.30662956 33.10253906 5.2409668 C35.29927047 8.43515898 35.53069996 10.12162299 35.609375 13.95703125 C35.64160156 15.06884766 35.67382812 16.18066406 35.70703125 17.32617188 C35.72121094 18.47666016 35.73539062 19.62714844 35.75 20.8125 C35.77964844 21.98232422 35.80929687 23.15214844 35.83984375 24.35742188 C35.91039709 27.23835009 35.96316729 30.11847578 36 33 C37.65 33.66 39.3 34.32 41 35 C41 36.98 41 38.96 41 41 C33.08 41 25.16 41 17 41 C17 39.02 17 37.04 17 35 C17.99 34.67 18.98 34.34 20 34 C20 26.74 20 19.48 20 12 C14.50421374 10.40529138 14.50421374 10.40529138 12.15698242 12.14575195 C10.71901691 14.45032002 10.57455136 15.95908718 10.48828125 18.66796875 C10.45283203 19.56064453 10.41738281 20.45332031 10.38085938 21.37304688 C10.35830078 22.30181641 10.33574219 23.23058594 10.3125 24.1875 C10.27833984 25.12787109 10.24417969 26.06824219 10.20898438 27.03710938 C10.12651782 29.35795393 10.05736597 31.67842148 10 34 C11.32 34.33 12.64 34.66 14 35 C14 36.98 14 38.96 14 41 C6.74 41 -0.52 41 -8 41 C-8 39.02 -8 37.04 -8 35 C-6.02 34.505 -6.02 34.505 -4 34 C-4.495 22.615 -4.495 22.615 -5 11 C-10.76887492 10.4452998 -10.76887492 10.4452998 -14 13 C-14.41570008 15.22498915 -14.41570008 15.22498915 -14.29296875 17.7890625 C-14.28330078 18.73007813 -14.27363281 19.67109375 -14.26367188 20.640625 C-14.23853516 21.62546875 -14.21339844 22.6103125 -14.1875 23.625 C-14.17396484 24.61757812 -14.16042969 25.61015625 -14.14648438 26.6328125 C-14.11105743 29.08908072 -14.06166196 31.54427285 -14 34 C-12.515 34.495 -12.515 34.495 -11 35 C-11 36.98 -11 38.96 -11 41 C-18.92 41 -26.84 41 -35 41 C-35 39.02 -35 37.04 -35 35 C-33.35 34.34 -31.7 33.68 -30 33 C-30 25.08 -30 17.16 -30 9 C-31.65 8.67 -33.3 8.34 -35 8 C-35 5.69 -35 3.38 -35 1 C-28.73 1 -22.46 1 -16 1 C-15.67 2.32 -15.34 3.64 -15 5 C-14.50371094 4.6390625 -14.00742188 4.278125 -13.49609375 3.90625 C-8.85164371 0.73357065 -5.79083322 -0.84230301 0 0 Z " fill="#040404" transform="translate(256,47)"/>
<path d="M0 0 C5.1295297 3.38742527 8.1873209 7.16480268 10 13 C10.92245039 18.92062549 10.3142076 23.95073469 7.33984375 29.1796875 C4.19820273 33.44792282 -0.0342412 37.07805132 -5 39 C-12.97443199 39.88192205 -20.40541181 40.01254398 -27.265625 35.421875 C-32.34091117 31.26105481 -34.54578263 26.94866297 -35.29296875 20.453125 C-35.64356532 13.59280299 -34.47968261 9.23663729 -30 4 C-21.86144214 -4.36462891 -10.1316298 -4.58511714 0 0 Z " fill="#050505" transform="translate(173,50)"/>
<path d="M0 0 C4.37961972 3.0227668 7.58077113 6.50012589 9.26953125 11.56640625 C10.10904982 19.23896833 10.08240713 25.48086434 5.14453125 31.6875 C-0.45076243 37.29445054 -5.36444515 38.88403804 -13.29296875 39.19140625 C-20.82601865 38.91994499 -25.04396438 37.28076834 -30.28125 32.00390625 C-35.23739203 26.41952087 -35.14048729 21.275705 -35.06640625 14.08984375 C-34.59503978 9.14597685 -33.24670685 6.05734767 -29.73046875 2.56640625 C-20.54289098 -4.67449663 -10.33494511 -5.71270194 0 0 Z " fill="#050505" transform="translate(438.73046875,50.43359375)"/>
<path d="M0 0 C4.87808589 1.770425 7.71913617 4.34537139 10 9 C10.43237305 11.86254883 10.43237305 11.86254883 10.51171875 14.95703125 C10.54716797 16.06884766 10.58261719 17.18066406 10.61914062 18.32617188 C10.65297852 20.0519043 10.65297852 20.0519043 10.6875 21.8125 C10.72166016 22.98232422 10.75582031 24.15214844 10.79101562 25.35742188 C10.87332316 28.23818554 10.94253178 31.11865138 11 34 C12.32 34.33 13.64 34.66 15 35 C15 36.98 15 38.96 15 41 C7.08 41 -0.84 41 -9 41 C-9 39.02 -9 37.04 -9 35 C-7.68 34.34 -6.36 33.68 -5 33 C-4.94192957 29.89591193 -4.90638086 26.7919636 -4.875 23.6875 C-4.85824219 22.80642578 -4.84148437 21.92535156 -4.82421875 21.01757812 C-4.81777344 20.17001953 -4.81132812 19.32246094 -4.8046875 18.44921875 C-4.79421387 17.66893311 -4.78374023 16.88864746 -4.77294922 16.0847168 C-4.87119141 13.6934152 -4.87119141 13.6934152 -7 11 C-10 10.58333333 -10 10.58333333 -13 11 C-15.20595109 12.78654061 -15.20595109 12.78654061 -15.22705078 15.15478516 C-15.21657715 16.02409668 -15.20610352 16.8934082 -15.1953125 17.7890625 C-15.18886719 18.73007813 -15.18242187 19.67109375 -15.17578125 20.640625 C-15.15902344 21.62546875 -15.14226562 22.6103125 -15.125 23.625 C-15.11597656 24.61757812 -15.10695313 25.61015625 -15.09765625 26.6328125 C-15.07404116 29.08878134 -15.04110799 31.54427168 -15 34 C-13.515 34.495 -13.515 34.495 -12 35 C-12 36.98 -12 38.96 -12 41 C-19.92 41 -27.84 41 -36 41 C-36 39.02 -36 37.04 -36 35 C-34.02 34.505 -34.02 34.505 -32 34 C-32 25.75 -32 17.5 -32 9 C-33.32 8.67 -34.64 8.34 -36 8 C-36 5.69 -36 3.38 -36 1 C-29.73 1 -23.46 1 -17 1 C-16.67 2.32 -16.34 3.64 -16 5 C-15.030625 4.175 -14.06125 3.35 -13.0625 2.5 C-8.76991507 -0.54383295 -5.1292633 -0.97872869 0 0 Z " fill="#060606" transform="translate(487,47)"/>
<path d="M0 0 C4.1293522 1.42939115 6.80590979 3.20650584 9.18847656 6.92236328 C11.0256528 11.62584395 10.39570732 16.90974275 10.25 21.875 C10.23195312 23.0403125 10.21390625 24.205625 10.1953125 25.40625 C10.1483382 28.27168249 10.08266293 31.13541168 10 34 C11.65 34.33 13.3 34.66 15 35 C15 36.98 15 38.96 15 41 C7.08 41 -0.84 41 -9 41 C-9 39.02 -9 37.04 -9 35 C-7.68 34.34 -6.36 33.68 -5 33 C-4.94209647 29.70840684 -4.90643739 26.41694397 -4.875 23.125 C-4.85824219 22.18785156 -4.84148437 21.25070313 -4.82421875 20.28515625 C-4.81777344 19.38925781 -4.81132813 18.49335937 -4.8046875 17.5703125 C-4.79421387 16.74289551 -4.78374023 15.91547852 -4.77294922 15.06298828 C-4.80697743 12.77601843 -4.80697743 12.77601843 -7 11 C-11.34194936 11.09695116 -11.34194936 11.09695116 -15 13 C-15.08685603 14.56172745 -15.10702219 16.12729344 -15.09765625 17.69140625 C-15.09282227 19.10776367 -15.09282227 19.10776367 -15.08789062 20.55273438 C-15.07951172 21.54595703 -15.07113281 22.53917969 -15.0625 23.5625 C-15.05798828 24.55958984 -15.05347656 25.55667969 -15.04882812 26.58398438 C-15.03700007 29.05604849 -15.02051849 31.52799518 -15 34 C-13.515 34.495 -13.515 34.495 -12 35 C-12 36.98 -12 38.96 -12 41 C-19.92 41 -27.84 41 -36 41 C-36 39.02 -36 37.04 -36 35 C-34.02 34.505 -34.02 34.505 -32 34 C-31.67 25.42 -31.34 16.84 -31 8 C-32.65 8 -34.3 8 -36 8 C-36 5.69 -36 3.38 -36 1 C-29.73 1 -23.46 1 -17 1 C-16.67 2.32 -16.34 3.64 -16 5 C-15.5153125 4.6390625 -15.030625 4.278125 -14.53125 3.90625 C-9.38222358 0.3415394 -6.25556186 -0.80716927 0 0 Z " fill="#060606" transform="translate(89,47)"/>
<path d="M0 0 C3.79254238 3.9821695 5.09887789 6.60067889 5.31640625 12.0078125 C5.35830078 12.99394531 5.40019531 13.98007813 5.44335938 14.99609375 C5.48267578 16.02863281 5.52199219 17.06117187 5.5625 18.125 C5.60568359 19.16527344 5.64886719 20.20554687 5.69335938 21.27734375 C5.7996288 23.85142528 5.90166583 26.42560508 6 29 C7.32 29.33 8.64 29.66 10 30 C10 31.98 10 33.96 10 36 C4.49751096 37.9487982 0.72609126 38.40805523 -5 37 C-7.5 34.4375 -7.5 34.4375 -9 32 C-9.763125 32.804375 -10.52625 33.60875 -11.3125 34.4375 C-15.4809314 38.41205087 -19.06397032 38.27868398 -24.5546875 38.22265625 C-27.71713392 37.93470186 -29.58034071 37.04158753 -32 35 C-34.82220955 30.76668568 -34.78619823 26.97131405 -34 22 C-30.7905998 17.72079973 -27.50814556 15.59717751 -22.375 14.375 C-17.90628369 13.87847597 -13.49096721 13.92012114 -9 14 C-9.30818356 12.68647977 -9.62167665 11.37420428 -9.9375 10.0625 C-10.11152344 9.33160156 -10.28554688 8.60070312 -10.46484375 7.84765625 C-10.83887569 6.00030102 -10.83887569 6.00030102 -12 5 C-14.45809998 4.7499227 -14.45809998 4.7499227 -17 5 C-19.37158027 7.0285831 -19.37158027 7.0285831 -20 11 C-23.96 11 -27.92 11 -32 11 C-32 3.89190141 -32 3.89190141 -28.67578125 0.32421875 C-20.27284488 -6.31586383 -8.67050483 -5.40386173 0 0 Z " fill="#060606" transform="translate(333,51)"/>
<path d="M0 0 C3.47105846 1.97373912 5.2158175 3.3423388 7.1875 6.8125 C7.4375 10.625 7.4375 10.625 7.1875 13.8125 C3.2275 13.8125 -0.7325 13.8125 -4.8125 13.8125 C-5.1425 11.5025 -5.4725 9.1925 -5.8125 6.8125 C-7.1325 7.1425 -8.4525 7.4725 -9.8125 7.8125 C-10.1425 11.1125 -10.4725 14.4125 -10.8125 17.8125 C-6.8525 17.8125 -2.8925 17.8125 1.1875 17.8125 C1.1875 20.1225 1.1875 22.4325 1.1875 24.8125 C-2.4425 24.8125 -6.0725 24.8125 -9.8125 24.8125 C-9.4825 33.3925 -9.1525 41.9725 -8.8125 50.8125 C-5.3475 51.3075 -5.3475 51.3075 -1.8125 51.8125 C-1.8125 53.7925 -1.8125 55.7725 -1.8125 57.8125 C-11.0525 57.8125 -20.2925 57.8125 -29.8125 57.8125 C-29.8125 55.8325 -29.8125 53.8525 -29.8125 51.8125 C-27.8325 51.3175 -27.8325 51.3175 -25.8125 50.8125 C-25.4825 42.2325 -25.1525 33.6525 -24.8125 24.8125 C-27.1225 24.8125 -29.4325 24.8125 -31.8125 24.8125 C-31.8125 22.5025 -31.8125 20.1925 -31.8125 17.8125 C-29.5025 17.8125 -27.1925 17.8125 -24.8125 17.8125 C-24.9053125 16.265625 -24.9053125 16.265625 -25 14.6875 C-24.76987594 9.93160284 -23.7782538 6.80510836 -20.3828125 3.36328125 C-14.11812971 -2.07546077 -7.71568516 -2.4032462 0 0 Z " fill="#080808" transform="translate(137.8125,30.1875)"/>
<path d="M0 0 C9.57 0 19.14 0 29 0 C29 1.98 29 3.96 29 6 C27.02 6.33 25.04 6.66 23 7 C23 20.53 23 34.06 23 48 C24.98 48.33 26.96 48.66 29 49 C29 50.98 29 52.96 29 55 C19.43 55 9.86 55 0 55 C0 53.02 0 51.04 0 49 C1.98 49 3.96 49 6 49 C6.33 35.14 6.66 21.28 7 7 C4.69 6.67 2.38 6.34 0 6 C0 4.02 0 2.04 0 0 Z " fill="#020202" transform="translate(21,33)"/>
<path d="M0 0 C2.97 0 5.94 0 9 0 C9 3.96 9 7.92 9 12 C11.97 12 14.94 12 18 12 C18 14.31 18 16.62 18 19 C15.03 19 12.06 19 9 19 C9.33 26.92 9.66 34.84 10 43 C12.64 43 15.28 43 18 43 C18 45.64 18 48.28 18 51 C12.46265044 53.39452954 6.93646056 53.74205757 1 53 C-2.67767696 50.89847031 -4.4526678 48.88825505 -6 45 C-6.22705078 42.15917969 -6.22705078 42.15917969 -6.1953125 38.921875 C-6.18886719 37.76171875 -6.18242187 36.6015625 -6.17578125 35.40625 C-6.15902344 34.1996875 -6.14226562 32.993125 -6.125 31.75 C-6.11597656 30.52796875 -6.10695313 29.3059375 -6.09765625 28.046875 C-6.07409513 25.03105218 -6.04119706 22.01562508 -6 19 C-8.31 19 -10.62 19 -13 19 C-13 16.69 -13 14.38 -13 12 C-12.37351562 11.91363281 -11.74703125 11.82726563 -11.1015625 11.73828125 C-8.63838663 11.31480149 -6.35588224 10.83860762 -4 10 C-2.41387499 7.74303573 -2.41387499 7.74303573 -2 5 C-1.33333333 3.33333333 -0.66666667 1.66666667 0 0 Z " fill="#0A0A0A" transform="translate(354,36)"/>
<path d="M0 0 C5.94 0 11.88 0 18 0 C18.33 1.98 18.66 3.96 19 6 C19.78375 5.195625 20.5675 4.39125 21.375 3.5625 C25.52057244 -0.48436834 25.60637735 0 32 0 C32 3.96 32 7.92 32 12 C29.4609375 12.22786458 26.921875 12.45572917 24.3828125 12.68359375 C21.98889139 12.86989285 21.98889139 12.86989285 20 14 C20 20.27 20 26.54 20 33 C22.64 33.33 25.28 33.66 28 34 C28 35.98 28 37.96 28 40 C18.76 40 9.52 40 0 40 C0 38.02 0 36.04 0 34 C2.475 33.505 2.475 33.505 5 33 C4.67 24.75 4.34 16.5 4 8 C2.68 7.67 1.36 7.34 0 7 C0 4.69 0 2.38 0 0 Z " fill="#060606" transform="translate(186,48)"/>
<path d="M0 0 C1.65625 1.09765625 1.65625 1.09765625 4.09375 3.09765625 C3.88461776 9.86831245 1.2735971 12.84745097 -3.40625 17.53515625 C-4.03901855 18.18895264 -4.67178711 18.84274902 -5.32373047 19.51635742 C-18.37551191 32.87873737 -18.37551191 32.87873737 -23.90625 35.09765625 C-27.09375 34.84765625 -27.09375 34.84765625 -29.90625 34.09765625 C-31.65645186 30.59725253 -31.41606906 26.86832763 -30.34277344 23.140625 C-29.55826791 21.08775117 -28.69853329 19.09469807 -27.78125 17.09765625 C-27.30365234 16.04155151 -27.30365234 16.04155151 -26.81640625 14.96411133 C-23.78329902 8.4772194 -20.86974623 3.83102197 -14.59375 0.16015625 C-9.70233397 -1.24923481 -4.77671767 -2.26111021 0 0 Z " fill="#E40B16" transform="translate(412.90625,8.90234375)"/>
<path d="M0 0 C6.93 0 13.86 0 21 0 C21.33 10.89 21.66 21.78 22 33 C23.65 33.33 25.3 33.66 27 34 C27 35.98 27 37.96 27 40 C18.42 40 9.84 40 1 40 C1 38.02 1 36.04 1 34 C2.65 33.34 4.3 32.68 6 32 C6 24.08 6 16.16 6 8 C3.03 7.505 3.03 7.505 0 7 C0 4.69 0 2.38 0 0 Z " fill="#030303" transform="translate(375,48)"/>
<path d="M0 0 C3.64600751 1.00265207 4.53013128 2.47155567 6.5 5.6875 C7.05501239 8.88929666 7.01402957 12.00860247 6.9375 15.25 C6.94458984 16.10013672 6.95167969 16.95027344 6.95898438 17.82617188 C6.92201194 21.45231406 6.85744298 24.00387727 5.16015625 27.25 C3.5 28.6875 3.5 28.6875 0.5 29.125 C-2.5 28.6875 -2.5 28.6875 -4.3125 27.4375 C-6.99675472 23.48175621 -6.72429757 18.96401775 -6.8125 14.3125 C-6.84988281 13.02601562 -6.88726562 11.73953125 -6.92578125 10.4140625 C-6.38287134 5.66235562 -4.9445588 1.35975367 0 0 Z " fill="#F7F7F7" transform="translate(425.5,53.3125)"/>
<path d="M0 0 C2.85356695 0.58534707 3.75580507 1.14562709 5.4375 3.5 C6.64864716 7.09167779 6.6047543 10.60929896 6.625 14.375 C6.63917969 15.56867188 6.65335938 16.76234375 6.66796875 17.9921875 C6.43550135 21.53042019 5.82264805 24.24368704 4.4375 27.5 C1.57629744 28.93060128 -0.40260585 28.88692581 -3.5625 28.5 C-7.21308081 24.19814186 -7.04787566 19.86207407 -7 14.5 C-7.01998047 13.7059375 -7.03996094 12.911875 -7.06054688 12.09375 C-7.05718779 8.06284608 -6.85564728 5.97590437 -4.6953125 2.46875 C-2.5625 0.5 -2.5625 0.5 0 0 Z " fill="#F8F8F8" transform="translate(160.5625,53.5)"/>
<path d="M0 0 C1.2263757 2.45275141 1.11415314 4.0505781 1.09765625 6.7890625 C1.09443359 7.73007813 1.09121094 8.67109375 1.08789062 9.640625 C1.07951172 10.62546875 1.07113281 11.6103125 1.0625 12.625 C1.05798828 13.61757812 1.05347656 14.61015625 1.04882812 15.6328125 C1.03702145 18.0886016 1.020554 20.54427104 1 23 C-0.32 23.33 -1.64 23.66 -3 24 C-3 25.98 -3 27.96 -3 30 C-3.99 30 -4.98 30 -6 30 C-6 28.02 -6 26.04 -6 24 C-7.32 23.67 -8.64 23.34 -10 23 C-10.11604679 19.5627834 -10.18719508 16.12606914 -10.25 12.6875 C-10.28351563 11.71103516 -10.31703125 10.73457031 -10.3515625 9.72851562 C-10.36445313 8.79072266 -10.37734375 7.85292969 -10.390625 6.88671875 C-10.41157227 6.02264404 -10.43251953 5.15856934 -10.45410156 4.26831055 C-10 2 -10 2 -8.17480469 0.18286133 C-5.12356089 -1.47668921 -3.26633966 -0.94360923 0 0 Z " fill="#F6F6F6" transform="translate(251,58)"/>
<path d="M0 0 C1.670625 0.061875 1.670625 0.061875 3.375 0.125 C3.73690476 5.55357143 3.73690476 5.55357143 2.1875 8 C-0.24258081 9.50832602 -1.81515752 9.48523622 -4.625 9.125 C-5.285 8.465 -5.945 7.805 -6.625 7.125 C-6.12608303 2.13583028 -5.31787022 0.18337484 0 0 Z " fill="#F8F8F8" transform="translate(319.625,70.875)"/>
</svg>
