<?xml version="1.0" encoding="UTF-8"?>
<svg version="1.1" xmlns="http://www.w3.org/2000/svg" width="474" height="474">
<path d="M0 0 C156.42 0 312.84 0 474 0 C474 156.42 474 312.84 474 474 C317.58 474 161.16 474 0 474 C0 317.58 0 161.16 0 0 Z " fill="#EFF1F3" transform="translate(0,0)"/>
<path d="M0 0 C0.7912446 -0.00382555 1.58248921 -0.00765109 2.39771092 -0.01159257 C5.05777957 -0.02193847 7.71763302 -0.01792742 10.37771606 -0.01396179 C12.28135377 -0.01830742 14.18498971 -0.02349007 16.08862305 -0.02944946 C21.26632157 -0.04286758 26.44394723 -0.04341495 31.62165976 -0.04088616 C35.9408455 -0.03981824 40.26001639 -0.04469531 44.57919896 -0.04949158 C54.76790861 -0.06059676 64.95658141 -0.06101867 75.14529419 -0.05497742 C85.66251884 -0.04893732 96.17960973 -0.06124728 106.69681156 -0.08254749 C115.72023875 -0.10015165 124.74362333 -0.10616667 133.76706707 -0.10290974 C139.15905779 -0.10109466 144.55095311 -0.10375537 149.94292831 -0.11762428 C155.01380741 -0.13017851 160.08447774 -0.1282813 165.15535355 -0.11521339 C167.01737284 -0.11284272 168.87940672 -0.11559982 170.7414093 -0.12383652 C173.28178875 -0.13426435 175.8214626 -0.12623542 178.36181641 -0.11352539 C179.10004981 -0.12089968 179.83828321 -0.12827396 180.59888732 -0.13587171 C184.99311422 -0.08956679 187.90713854 0.40201827 191.30789185 3.26069641 C193.58336165 7.20240559 193.56545374 10.87218316 193.58204651 15.35810852 C193.58728319 16.06122382 193.59251987 16.76433912 193.59791523 17.48876095 C193.61288564 19.83857867 193.61361971 22.18817807 193.61428833 24.53804016 C193.62191161 26.22522854 193.6303394 27.91241345 193.63951111 29.59959412 C193.66144144 34.17800686 193.67025259 38.75635283 193.67533755 43.33481216 C193.67898167 46.19511456 193.6852219 49.05539946 193.69233894 51.91569519 C193.71682456 61.89365915 193.72988424 71.87157114 193.73342896 81.8495636 C193.73706756 91.1524575 193.76698843 100.45502216 193.80883354 109.75781536 C193.84350326 117.74520088 193.85897679 125.73247705 193.85967499 133.71993732 C193.86046869 138.49048727 193.86925035 143.26070148 193.89767265 148.03117371 C193.92379785 152.51616612 193.92608983 157.00054303 193.91001701 161.48557663 C193.90819831 163.13152786 193.91493125 164.77751405 193.93083572 166.42338943 C193.95122908 168.67075307 193.94078781 170.9159491 193.92262268 173.1632843 C193.92463401 174.42056839 193.92664534 175.67785248 193.92871761 176.97323608 C193.01216848 181.82664113 190.38241439 183.79460811 186.47375298 186.55690289 C183.22832895 187.61149885 180.02985587 187.5390257 176.65411377 187.52139282 C175.87905452 187.52521837 175.10399526 187.52904392 174.30544937 187.53298539 C171.70609705 187.54331129 169.1069658 187.53932403 166.50759888 187.53535461 C164.64484452 187.53970134 162.78209195 187.54488436 160.91934204 187.55084229 C155.85733391 187.56424844 150.79540036 187.5648091 145.73337793 187.56227899 C141.50867862 187.56121027 137.28399447 187.56609016 133.0592984 187.57088441 C123.09250946 187.58198541 113.1257582 187.58241381 103.15896606 187.57637024 C92.87520256 187.57033035 82.59157586 187.58264052 72.3078357 187.60394031 C63.48054924 187.62155157 54.65330634 187.62755837 45.82600296 187.62430257 C40.55304298 187.62248864 35.28018057 187.62513668 30.00723648 187.63901711 C25.04796499 187.65158288 20.08890684 187.64966314 15.12963867 187.63660622 C13.30996504 187.63423808 11.49027645 187.6369836 9.67061996 187.64522934 C7.1853777 187.65567862 4.70085365 187.64761099 2.21563721 187.63491821 C1.49656256 187.6422925 0.77748791 187.64966678 0.03662312 187.65726453 C-4.6038779 187.60744963 -7.85116776 186.90132984 -11.69210815 184.26069641 C-14.6435242 179.88873784 -15.0695905 176.33100175 -15.07978821 171.12568665 C-15.08517375 170.43058959 -15.09055928 169.73549253 -15.09610802 169.01933193 C-15.1103553 166.70246847 -15.10329222 164.38617896 -15.09616089 162.06929016 C-15.10186611 160.40328005 -15.10883096 158.73727385 -15.11695862 157.0712738 C-15.13488693 152.55478488 -15.13372244 148.03849028 -15.12801623 143.52197647 C-15.12492437 139.74949846 -15.13101671 135.97705777 -15.13705498 132.20458508 C-15.15109709 123.30496295 -15.14954111 114.40543683 -15.13815308 105.5058136 C-15.12666772 96.32735202 -15.14075522 87.14918249 -15.16754955 77.97075939 C-15.18970445 70.08608792 -15.19634453 62.20150814 -15.19047314 54.31680775 C-15.18710239 49.60946469 -15.18952666 44.90230892 -15.20672417 40.19499207 C-15.22218825 35.76912055 -15.21824386 31.34368198 -15.19941902 26.91782761 C-15.19573186 25.29488584 -15.19884536 23.67191203 -15.20930481 22.04899979 C-15.22250839 19.83073654 -15.21097503 17.61390806 -15.1933136 15.39570618 C-15.19310431 14.15539139 -15.19289503 12.9150766 -15.19267941 11.63717651 C-14.59133027 7.58092398 -13.24656154 5.43462236 -10.69210815 2.26069641 C-7.01332607 -0.19182498 -4.25397391 -0.02164704 0 0 Z " fill="#687787" transform="translate(145.69210815429688,141.7393035888672)"/>
<path d="M0 0 C54.45 0 108.9 0 165 0 C165 33.66 165 67.32 165 102 C160.73439917 99.4406395 158.77104485 97.88035262 155.6875 94.25 C152.2615541 90.33381892 148.72826207 86.86590739 144.765625 83.50390625 C140.81152386 80.13592187 137.41113351 76.33866575 134 72.4375 C131.19298017 69.24602905 128.34737952 66.62362179 125 64 C123.31267723 62.01739574 121.64633943 60.0167658 120 58 C117.6564534 55.54213405 115.43043903 53.31410416 112.6875 51.3125 C112.130625 50.879375 111.57375 50.44625 111 50 C111 49.34 111 48.68 111 48 C108.05173237 47.01724412 106.07347496 46.86585275 103 46.875 C102.13375 46.87242187 101.2675 46.86984375 100.375 46.8671875 C97.84988305 46.90405795 97.84988305 46.90405795 95 48 C95 48.66 95 49.32 95 50 C93.609375 51.33203125 93.609375 51.33203125 91.75 52.8125 C88.73766302 55.30253662 86.36606567 57.87341322 84 61 C82.375 62.8125 82.375 62.8125 81 64 C80.34 64 79.68 64 79 64 C79 64.66 79 65.32 79 66 C77.609375 67.33203125 77.609375 67.33203125 75.75 68.8125 C72.73766302 71.30253662 70.36606567 73.87341322 68 77 C66.375 78.8125 66.375 78.8125 65 80 C64.34 80 63.68 80 63 80 C63 80.66 63 81.32 63 82 C61.609375 83.33203125 61.609375 83.33203125 59.75 84.8125 C57.53561431 86.64158258 55.80618959 88.24226301 54 90.5 C51.79578883 93.25526397 49.35965986 95.2860452 46.65625 97.53125 C44.83125121 99.06593328 44.83125121 99.06593328 43 101.5 C40.75549372 104.30563285 38.26877216 106.41142473 35.48828125 108.66796875 C33.87117455 109.95079945 33.87117455 109.95079945 33 112 C32.34 112 31.68 112 31 112 C31 112.66 31 113.32 31 114 C29.609375 115.33203125 29.609375 115.33203125 27.75 116.8125 C24.73766302 119.30253662 22.36606567 121.87341322 20 125 C18.375 126.8125 18.375 126.8125 17 128 C16.34 128 15.68 128 15 128 C15 128.66 15 129.32 15 130 C13.34997172 131.35386936 11.6825613 132.68678142 10 134 C9.505 134.99 9.505 134.99 9 136 C8.34 136 7.68 136 7 136 C7 136.66 7 137.32 7 138 C1.4047619 143 1.4047619 143 0 143 C0 95.81 0 48.62 0 0 Z " fill="#EFF1F3" transform="translate(153,163)"/>
<path d="M0 0 C0.66 0 1.32 0 2 0 C2 156.42 2 312.84 2 474 C-154.09 474 -310.18 474 -471 474 C-471 473.34 -471 472.68 -471 472 C-315.57 472 -160.14 472 0 472 C0 316.24 0 160.48 0 0 Z " fill="#F7F8FA" transform="translate(472,0)"/>
<path d="M0 0 C5.86909656 4.57789532 9.90448782 8.843202 11.125 16.4375 C10.7403848 23.61698381 8.33014967 30.36932795 3.125 35.4375 C-2.56653318 38.94174377 -8.22601052 40.59487295 -14.875 39.4375 C-22.18688477 37.09242705 -25.70726699 32.68909952 -29.875 26.4375 C-31.32683119 19.74034321 -31.3379078 13.60883328 -27.765625 7.55859375 C-21.67555674 -1.4449331 -10.30609462 -5.39513678 0 0 Z " fill="#687787" transform="translate(203.875,185.5625)"/>
<path d="M0 0 C3.48330216 0.64505596 6.09432866 1.98217268 9 4 C9 4.66 9 5.32 9 6 C9.598125 6.226875 10.19625 6.45375 10.8125 6.6875 C13.62174735 8.37304841 14.63293699 10.05002192 16 13 C15.67 13.99 15.34 14.98 15 16 C14.62488281 15.55269531 14.24976563 15.10539063 13.86328125 14.64453125 C10.71795207 10.92876454 7.49133287 7.39945569 4 4 C2.66666667 2.66666667 1.33333333 1.33333333 0 0 Z " fill="#EAEDF2" transform="translate(264,212)"/>
<path d="M0 0 C1.32 0.33 2.64 0.66 4 1 C4.33 2.32 4.66 3.64 5 5 C5.66 5 6.32 5 7 5 C7 5.66 7 6.32 7 7 C7.66 7 8.32 7 9 7 C9.33 8.65 9.66 10.3 10 12 C6.15216516 8.93922229 2.85267377 6.05957421 0 2 C0 1.34 0 0.68 0 0 Z " fill="#E3E8ED" transform="translate(282,228)"/>
<path d="M0 0 C0.66 0 1.32 0 2 0 C1.50168276 3.68754757 0.89932357 5.60490662 -2 8 C-3.32 7.34 -4.64 6.68 -6 6 C-5.01 5.67 -4.02 5.34 -3 5 C-2.67 4.01 -2.34 3.02 -2 2 C-1.34 2 -0.68 2 0 2 C0 1.34 0 0.68 0 0 Z M-5 8 C-4.01 8.495 -4.01 8.495 -3 9 C-3.99 9.495 -3.99 9.495 -5 10 C-5 9.34 -5 8.68 -5 8 Z " fill="#747F8D" transform="translate(160,299)"/>
<path d="M0 0 C0.33 0.99 0.66 1.98 1 3 C-1.64 5.64 -4.28 8.28 -7 11 C-7.99 10.67 -8.98 10.34 -10 10 C-9.01 9.67 -8.02 9.34 -7 9 C-6.67 8.01 -6.34 7.02 -6 6 C-5.34 6 -4.68 6 -4 6 C-3.67 5.01 -3.34 4.02 -3 3 C-2.34 3 -1.68 3 -1 3 C-0.67 2.01 -0.34 1.02 0 0 Z " fill="#7A848E" transform="translate(201,258)"/>
<path d="M0 0 C2 0 2 0 3.625 1.375 C5 3 5 3 5 5 C5.66 5 6.32 5 7 5 C7.33 6.65 7.66 8.3 8 10 C1.42857143 5 1.42857143 5 0 0 Z " fill="#E0E4EB" transform="translate(308,254)"/>
<path d="M0 0 C0.66 0 1.32 0 2 0 C1.67 1.65 1.34 3.3 1 5 C0.01 5 -0.98 5 -2 5 C-2 5.66 -2 6.32 -2 7 C-3.32 6.67 -4.64 6.34 -6 6 C-5.01 5.67 -4.02 5.34 -3 5 C-2.67 4.01 -2.34 3.02 -2 2 C-1.34 2 -0.68 2 0 2 C0 1.34 0 0.68 0 0 Z " fill="#76808A" transform="translate(184,275)"/>
<path d="M0 0 C0.99 0.33 1.98 0.66 3 1 C2.01 1.495 2.01 1.495 1 2 C1 2.99 1 3.98 1 5 C0.01 5 -0.98 5 -2 5 C-2 5.66 -2 6.32 -2 7 C-3.32 6.67 -4.64 6.34 -6 6 C-5.01 5.67 -4.02 5.34 -3 5 C-2.67 4.01 -2.34 3.02 -2 2 C-1.34 2 -0.68 2 0 2 C0 1.34 0 0.68 0 0 Z " fill="#76808A" transform="translate(216,243)"/>
<path d="M0 0 C0.99 0.33 1.98 0.66 3 1 C2.01 1.495 2.01 1.495 1 2 C1 2.99 1 3.98 1 5 C0.01 5 -0.98 5 -2 5 C-2 5.66 -2 6.32 -2 7 C-3.32 6.67 -4.64 6.34 -6 6 C-5.01 5.67 -4.02 5.34 -3 5 C-2.67 4.01 -2.34 3.02 -2 2 C-1.34 2 -0.68 2 0 2 C0 1.34 0 0.68 0 0 Z " fill="#76808A" transform="translate(232,227)"/>
<path d="M0 0 C3.48539917 0.64544429 6.02819057 2.10134397 9 4 C8.34 5.32 7.68 6.64 7 8 C6.401875 7.236875 5.80375 6.47375 5.1875 5.6875 C3.53040668 3.6516425 1.89702326 1.8021721 0 0 Z " fill="#DFE6EC" transform="translate(264,212)"/>
<path d="M0 0 C0.66 0.33 1.32 0.66 2 1 C2 1.66 2 2.32 2 3 C2.99 3.33 3.98 3.66 5 4 C1.89953913 5.03348696 0.94389782 5.17755913 -2 4 C-2.33 3.01 -2.66 2.02 -3 1 C-2.01 0.67 -1.02 0.34 0 0 Z " fill="#74808C" transform="translate(300,248)"/>
<path d="M0 0 C0.99 0 1.98 0 3 0 C3.33 2.31 3.66 4.62 4 7 C3.01 7.495 3.01 7.495 2 8 C2 6.68 2 5.36 2 4 C1.34 4 0.68 4 0 4 C0 2.68 0 1.36 0 0 Z " fill="#777F8B" transform="translate(211,199)"/>
<path d="M0 0 C0.66 0 1.32 0 2 0 C2 0.66 2 1.32 2 2 C3.32 2.33 4.64 2.66 6 3 C5.34 4.32 4.68 5.64 4 7 C1.49962266 4.82575883 0.56371414 3.26954202 0 0 Z " fill="#DFE5EB" transform="translate(295,241)"/>
<path d="M0 0 C0.66 0.33 1.32 0.66 2 1 C2 1.99 2 2.98 2 4 C-0.64 4.66 -3.28 5.32 -6 6 C-4 4 -2 2 0 0 Z " fill="#7C868F" transform="translate(184,185)"/>
</svg>
