<?xml version="1.0" encoding="UTF-8"?>
<svg version="1.1" xmlns="http://www.w3.org/2000/svg" width="2400" height="2382">
<path d="M0 0 C2.88319784 0.00543761 5.76638748 0.00780668 8.64958954 0.00987244 C35.78106682 0.040165 62.77423387 0.38061415 89.79332733 3.0900116 C92.131233 3.32196296 94.47006708 3.5405594 96.80956268 3.75584412 C181.15312665 11.57405841 264.41951417 30.36447953 484.34227753 124.73680115 C487.19681822 126.3794176 490.06781176 127.98925273 492.94530487 129.59129333 C494.42535004 130.41754211 494.42535004 130.41754211 495.9352951 131.26048279 C497.75976395 132.27799567 499.58586221 133.29259804 501.41429901 134.30296326 C516.81562498 142.93807082 531.51991917 152.819539 546.19701385 162.61741638 C548.65262278 164.25554707 551.11229865 165.88743947 553.572258 167.51902771 C568.34528253 177.3477471 582.76559307 187.63503377 596.83983612 198.44285583 C597.71833221 199.11534363 598.59682831 199.78783142 599.5019455 200.48069763 C602.03434079 202.4224326 604.56307193 204.36880088 607.08983612 206.31785583 C607.7762619 206.84685486 608.46268768 207.37585388 609.16991425 207.92088318 C616.60622092 213.66590677 623.85689987 219.59159217 630.99999237 225.69676208 C633.86561306 228.14088918 636.78389135 230.51481317 639.71483612 232.88035583 C644.4779083 236.75598516 649.02347861 240.83019872 653.54296112 244.98582458 C655.67925361 246.94190835 657.83764269 248.85973281 660.02733612 250.75535583 C665.47860215 255.5032327 670.78715923 260.40562333 676.08983612 265.31785583 C676.69940155 265.88085388 677.30896698 266.44385193 677.93700409 267.02391052 C687.03814411 275.44586099 695.93617402 284.06148022 704.71483612 292.81785583 C705.6389328 293.73736023 706.56302948 294.65686462 707.51512909 295.60423279 C712.0377023 300.13712021 716.43651909 304.71291724 720.58153534 309.59519958 C722.17857163 311.41920219 723.85914331 313.12084986 725.58983612 314.81785583 C728.60397194 317.78520906 731.38900945 320.89130876 734.14842987 324.09519958 C736.37787673 326.64762466 738.66984994 329.13673097 740.96483612 331.63035583 C745.03523668 336.09308416 748.89160521 340.68043584 752.68358612 345.38035583 C755.38763501 348.68140253 758.17128089 351.90520701 760.96483612 355.13035583 C766.37119745 361.39767338 771.52097525 367.83244634 776.58446503 374.37840271 C778.22748642 376.49519835 779.8825212 378.60224471 781.53905487 380.70848083 C788.18510719 389.17488725 794.66438178 397.71589535 800.83592987 406.53416443 C802.14983059 408.40319844 803.47778329 410.26160482 804.80858612 412.11863708 C841.80484929 463.88189252 873.9225985 519.32923792 900.08983612 577.31785583 C900.56517792 578.36650818 901.04051971 579.41516052 901.53026581 580.49559021 C932.32020225 648.62559652 954.52554436 720.02793812 969.08983612 793.31785583 C969.23552032 794.04476624 969.38120453 794.77167664 969.53130341 795.52061462 C987.11213358 883.31094918 991.2486271 974.04609926 862.56249237 1463.7485199 C859.83277176 1468.51104969 857.20856049 1473.33215907 854.56981659 1478.14549255 C852.6867984 1481.55088441 850.75585831 1484.89772382 848.66014862 1488.17723083 C848.27898895 1488.77455017 847.89782928 1489.37186951 847.50511932 1489.98728943 C846.48027371 1491.57231742 845.43620301 1493.14486948 844.39061737 1494.71629333 C842.90078291 1497.12050518 842.90078291 1497.12050518 843.2731786 1499.22216716 C844.33011879 1501.93446397 845.79416031 1503.39363841 847.85557526 1505.45043713 C848.67189959 1506.27222221 849.48822392 1507.0940073 850.32928535 1507.94069496 C851.23781581 1508.83991514 852.14634627 1509.73913532 853.08240795 1510.66560459 C854.05278757 1511.63668579 855.02250704 1512.60842704 855.99162278 1513.58076957 C858.67279383 1516.26701138 861.36328892 1518.94374514 864.05530301 1521.61911449 C866.97630091 1524.52534638 869.8885889 1527.44028346 872.80195123 1530.35416597 C877.91471185 1535.46544222 883.03300489 1540.57112584 888.1549015 1545.67324638 C895.77144145 1553.26046107 903.37935815 1560.85627794 910.98538789 1568.45402714 C923.78093587 1581.23525537 936.58310219 1594.00983441 949.38865471 1606.78103828 C966.8785885 1624.22431915 984.35773898 1641.67837603 1001.83383087 1659.13552361 C1009.9713307 1667.26419664 1018.10930265 1675.39239698 1026.24734974 1683.52052212 C1027.06212218 1684.334304 1027.87689462 1685.14808589 1028.71635713 1685.98652783 C1048.12061421 1705.36701652 1067.52912095 1724.74324747 1086.93871307 1744.11839294 C1087.78821113 1744.96638854 1088.63770918 1745.81438414 1089.51294959 1746.68807657 C1109.33004228 1766.47006822 1129.14863778 1786.25055309 1148.96935272 1806.02891541 C1150.69062508 1807.74651699 1152.41189716 1809.46411885 1154.13316898 1811.18172097 C1154.98454698 1812.03128302 1155.83592498 1812.88084506 1156.71310231 1813.75615142 C1160.14779531 1817.18351934 1163.58248617 1820.61088941 1167.01717214 1824.03826438 C1168.73133704 1825.74878034 1170.44550403 1827.4592942 1172.15967312 1829.16980596 C1191.52637999 1848.49526675 1210.89112965 1867.822681 1230.24835682 1887.1576376 C1231.06196123 1887.97030584 1231.87556565 1888.78297409 1232.71382474 1889.62026865 C1240.83646828 1897.73368669 1248.95867604 1905.84754075 1257.08027931 1913.9620001 C1261.0760616 1917.95424067 1265.07196329 1921.9463617 1269.0679493 1925.93839836 C1270.24764167 1927.11692581 1270.24764167 1927.11692581 1271.45116622 1928.3192619 C1284.115125 1940.97012561 1296.78843755 1953.61157914 1309.46553369 1966.24927685 C1322.20555291 1978.94997476 1334.9367789 1991.65943026 1347.65895226 2004.37800468 C1355.21930873 2011.93563789 1362.7866366 2019.48613312 1370.36404692 2027.02666854 C1375.42504475 2032.06439702 1380.47691993 2037.11115212 1385.52149359 2042.16532673 C1388.39602457 2045.04480019 1391.27435431 2047.92016848 1394.16392042 2050.78456057 C1396.79579659 2053.39365595 1399.41575205 2056.01414706 1402.02691923 2058.64396304 C1403.4048469 2060.02582684 1404.79500533 2061.39546229 1406.18570897 2062.76446763 C1418.79118441 2075.52914289 1421.50362178 2087.21470727 1421.45555878 2104.53636169 C1421.20933756 2120.0968648 1417.15493563 2134.08513518 1411.08983612 2148.31785583 C1410.80124725 2148.99670837 1410.51265839 2149.67556091 1410.2153244 2150.37498474 C1401.54581404 2170.41941783 1389.35846083 2188.41459217 1375.71483612 2205.38035583 C1375.23417694 2205.98057556 1374.75351776 2206.58079529 1374.25829315 2207.19920349 C1362.4743439 2221.62220662 1348.99187952 2234.57983475 1335.84051776 2247.73443127 C1334.19620395 2249.37946319 1332.5526072 2251.02520819 1330.90925026 2252.67119598 C1325.15432532 2258.43531982 1319.39687775 2264.19690959 1313.63695526 2269.95603943 C1308.30072423 2275.29166861 1302.97011283 2280.63286706 1297.64206833 2285.97667003 C1293.03467502 2290.59719562 1288.42337661 2295.21379972 1283.80909401 2299.82744527 C1281.06735469 2302.56893161 1278.32713445 2305.31189196 1275.59087181 2308.05884552 C1273.01872511 2310.64077193 1270.44168917 2313.21772175 1267.86104584 2315.79115486 C1266.48227808 2317.16840281 1265.10839393 2318.55053457 1263.73474884 2319.93289185 C1257.82681677 2325.81158785 1251.61967537 2331.14272352 1245.08983612 2336.31785583 C1243.73815594 2337.40625137 1242.38656752 2338.49476089 1241.03514862 2339.58348083 C1212.99072378 2361.66887318 1177.26769471 2382.74150086 1140.58983612 2382.63035583 C1138.99462128 2382.65452576 1138.99462128 2382.65452576 1137.36717987 2382.67918396 C1122.8178871 2382.68810991 1112.11073729 2377.7515779 1101.82302359 2367.57507721 C1100.93860719 2366.68015275 1100.05419079 2365.7852283 1099.1429739 2364.86318493 C1098.16805991 2363.89123414 1097.19226891 2362.92016241 1096.21568874 2361.94988576 C1093.53938797 2359.28581278 1090.87566011 2356.60947347 1088.21384914 2353.93093363 C1085.31409584 2351.01740494 1082.40270533 2348.11554354 1079.49278313 2345.21217757 C1074.3961043 2340.12378433 1069.30688989 2335.02802023 1064.22250366 2329.92734528 C1056.66219815 2322.34288644 1049.09043977 2314.7699394 1041.51629475 2307.19930432 C1028.77533989 2294.4636038 1016.04371275 2281.71861706 1003.31737328 2268.96831322 C990.71648792 2256.34376059 978.11147575 2243.72335207 965.50092506 2231.10845375 C964.71687144 2230.32412517 963.93281782 2229.53979659 963.125005 2228.73170048 C959.14317896 2224.74852111 955.16127902 2220.76541563 951.17935062 2216.7823386 C922.97475772 2188.56934382 894.7794502 2160.34708624 866.58959198 2132.11936951 C839.2033386 2104.69637932 811.81288736 2077.27759317 784.41674042 2049.86448669 C783.57228851 2049.01950868 782.7278366 2048.17453066 781.85779523 2047.30394725 C773.37746528 2038.81834322 764.89704988 2030.33282457 756.4165719 2021.84736848 C739.1408288 2004.5614805 721.86565597 1987.27502267 704.59082794 1969.98822021 C703.79655682 1969.19339993 703.0022857 1968.39857965 702.18394576 1967.57967391 C649.14302142 1914.50194629 596.11539214 1861.41093613 543.08983612 1808.31785583 C539.82531217 1809.5929968 536.91976014 1810.92075192 533.97264862 1812.82176208 C532.82723602 1813.55459412 532.82723602 1813.55459412 531.65868378 1814.30223083 C530.85221405 1814.82301208 530.04574432 1815.34379333 529.21483612 1815.88035583 C527.49685756 1816.9766178 525.77809956 1818.07165918 524.05858612 1819.16551208 C523.21167206 1819.70450134 522.364758 1820.2434906 521.49217987 1820.79881287 C501.89776832 1833.18869383 481.50874505 1844.36075737 461.08983612 1855.31785583 C460.18040253 1855.80753845 459.27096893 1856.29722107 458.33397675 1856.80174255 C442.54055306 1865.27687596 426.41919346 1872.93430816 410.08983612 1880.31785583 C408.50815643 1881.03521912 408.50815643 1881.03521912 406.89452362 1881.76707458 C327.56712414 1917.615026 243.63790162 1942.063934 -66.91016388 1965.31785583 C-67.74712799 1965.25469177 -68.5840921 1965.19152771 -69.44641876 1965.12644958 C-140.97316133 1959.64891949 -211.10401063 1946.51075208 -279.91016388 1926.31785583 C-280.62408295 1926.10860474 -281.33800201 1925.89935364 -282.07355499 1925.6837616 C-334.48611274 1910.27971854 -384.8908308 1889.31665681 -433.91016388 1865.31785583 C-434.91386017 1864.82962341 -435.91755646 1864.34139099 -436.95166779 1863.83836365 C-450.97463417 1857.00591142 -464.63968519 1849.69745893 -478.15039825 1841.90281677 C-480.81682047 1840.37146389 -483.49372798 1838.86068057 -486.17578888 1837.35691833 C-515.10935364 1821.09389268 -543.03879206 1802.79912135 -569.91016388 1783.31785583 C-570.65636993 1782.77741638 -571.40257599 1782.23697693 -572.17139435 1781.68016052 C-587.77583526 1770.34732634 -603.05035867 1758.61160363 -617.91016388 1746.31785583 C-618.76223419 1745.6282074 -619.6143045 1744.93855896 -620.49219513 1744.22801208 C-631.94511021 1734.95500764 -642.99528363 1725.21524725 -653.91016388 1715.31785583 C-654.67071075 1714.6385199 -655.43125763 1713.95918396 -656.21485138 1713.25926208 C-669.40122443 1701.47799436 -682.12566728 1689.26744167 -694.61084747 1676.74754333 C-696.93212703 1674.42084138 -699.25879051 1672.09961755 -701.58594513 1669.77879333 C-703.09017255 1668.27390596 -704.59409019 1666.76870886 -706.09766388 1665.26316833 C-706.78006134 1664.5827951 -707.4624588 1663.90242188 -708.16553497 1663.20143127 C-712.04709747 1659.3010967 -715.75357441 1655.29994459 -719.34000397 1651.12612915 C-721.90378199 1648.17355639 -724.60227854 1645.34924715 -727.28516388 1642.50535583 C-732.01212764 1637.45874639 -736.48525531 1632.28451435 -740.80860138 1626.88426208 C-742.89017815 1624.3422622 -745.06054768 1621.92256248 -747.28516388 1619.50535583 C-751.26699974 1615.13084757 -754.92758471 1610.57256509 -758.5490799 1605.90135193 C-761.51061872 1602.08471015 -764.52976217 1598.32573866 -767.60254669 1594.59812927 C-774.80923945 1585.84497321 -781.57373266 1576.81144663 -788.22657013 1567.63230896 C-789.7757522 1565.50263291 -791.33973937 1563.38501382 -792.91016388 1561.27098083 C-809.02507368 1539.44870715 -823.95345569 1516.57129275 -837.91016388 1493.31785583 C-838.41740997 1492.47915955 -838.92465607 1491.64046326 -839.44727325 1490.77635193 C-863.5437721 1450.8824279 -884.90661769 1409.31232439 -902.91016388 1366.31785583 C-903.30597656 1365.37347656 -903.30597656 1365.37347656 -903.70978546 1364.41001892 C-936.90532826 1284.99925569 -959.53714317 1201.54029851 -977.14844513 1057.65379333 C-977.21169983 1056.88860886 -977.27495453 1056.12342438 -977.34012604 1055.33505249 C-978.56850788 1039.68125874 -979.0766409 1024.05511045 -979.11328888 1008.35691833 C-979.12030937 1006.48842851 -979.12739621 1004.61993893 -979.13454437 1002.75144958 C-979.15394307 996.81524816 -979.15897803 990.87908576 -979.16016388 984.94285583 C-979.16060574 983.93234917 -979.16104759 982.9218425 -979.16150284 981.88071442 C-979.16810364 953.11126507 -979.13548888 924.44668975 -976.16663361 895.79978943 C-975.89433184 893.16464448 -975.63368552 890.52849424 -975.37403107 887.89207458 C-966.63094152 800.10140278 -947.0889923 713.57146923 -846.43848419 487.88230896 C-845.04402937 485.54247614 -843.67060604 483.19230731 -842.30860138 480.83348083 C-833.12876287 464.95708676 -823.23319823 449.47469199 -812.91016388 434.31785583 C-812.51828888 433.7397113 -812.12641388 433.16156677 -811.72266388 432.56590271 C-799.378018 414.36884087 -786.33933344 396.72749563 -772.91016388 379.31785583 C-772.38116486 378.63143005 -771.85216583 377.94500427 -771.30713654 377.23777771 C-765.56211294 369.80147104 -759.63642754 362.55079209 -753.53125763 355.40769958 C-751.08713054 352.54207889 -748.71320654 349.62380061 -746.34766388 346.69285583 C-742.47203455 341.92978366 -738.39782099 337.38421334 -734.24219513 332.86473083 C-732.28611136 330.72843835 -730.36828691 328.57004926 -728.47266388 326.38035583 C-723.72480453 320.92910991 -718.82290952 315.62003539 -713.91016388 310.31785583 C-713.34184845 309.70297302 -712.77353302 309.08809021 -712.18799591 308.45457458 C-703.92753224 299.53497195 -695.49416918 290.80174887 -686.91016388 282.19285583 C-686.03827423 281.3163739 -685.16638458 280.43989197 -684.26807404 279.53684998 C-679.83760813 275.11700767 -675.33653005 270.85756502 -670.58985138 266.77928162 C-668.59910169 265.04721365 -666.74265637 263.21579448 -664.91016388 261.31785583 C-661.73900358 258.10350853 -658.45433635 255.10034621 -655.03125763 252.15769958 C-652.68525329 250.12276765 -650.39279938 248.03494617 -648.09766388 245.94285583 C-643.82354918 242.0844605 -639.41571474 238.43559398 -634.93750763 234.81785583 C-632.12951042 232.49899362 -629.38977802 230.12233683 -626.65772247 227.71556091 C-618.74701405 220.75475633 -610.52420074 214.3278935 -602.11035919 207.99021912 C-599.12340964 205.71984578 -596.17442846 203.40262503 -593.22412872 201.08494568 C-519.69936456 143.37813121 -435.94724486 98.00270992 -93.22266388 4.13035583 C-92.4431134 4.05145111 -91.66356293 3.97254639 -90.86038971 3.89125061 C-84.88246007 3.29338637 -78.89978371 2.78353851 -72.91016388 2.31785583 C-71.78120697 2.22958527 -70.65225006 2.1413147 -69.48908234 2.05036926 C-46.32539594 0.3019389 -23.22297309 -0.04556729 0 0 Z M-377.91016388 449.31785583 C-378.76223419 449.92903259 -379.6143045 450.54020935 -380.49219513 451.16990662 C-391.61450212 459.17649736 -402.38791538 467.53905436 -412.91016388 476.31785583 C-413.5005545 476.80914978 -414.09094513 477.30044373 -414.69922638 477.80662537 C-421.12819854 483.16710523 -427.44750846 488.63423305 -433.64063263 494.26707458 C-435.74668806 496.17013672 -437.88336857 498.02939404 -440.03516388 499.88035583 C-443.49123709 502.88533515 -446.6982395 506.08699514 -449.91016388 509.34910583 C-451.8490739 511.25772039 -453.84715939 513.04496135 -455.91016388 514.81785583 C-462.15454111 520.20683892 -467.75784611 526.06788606 -473.12891388 532.31785583 C-474.98441598 534.40122662 -476.92239489 536.3606679 -478.91016388 538.31785583 C-482.79042075 542.15368229 -486.36523488 546.17301577 -489.91016388 550.31785583 C-490.81588582 551.35998168 -491.72218191 552.40160868 -492.62891388 553.44285583 C-499.12413937 560.92653151 -505.36084661 568.56684444 -511.42237091 576.4047699 C-513.0092761 578.44529977 -514.6127237 580.47204022 -516.21875763 582.49754333 C-543.37852114 616.87036543 -566.67580354 654.64941473 -585.802742 694.04978943 C-587.06873532 696.64261966 -588.35750723 699.22368779 -589.64453888 701.80613708 C-597.62901851 717.96682892 -604.53843502 734.46969389 -610.91016388 751.31785583 C-611.28141388 752.29565002 -611.28141388 752.29565002 -611.66016388 753.29319763 C-642.48136345 834.65032891 -655.2100972 920.94962154 -621.91016388 1183.31785583 C-621.70240326 1183.95962769 -621.49464264 1184.60139954 -621.28058624 1185.26261902 C-606.58092946 1230.55808927 -587.22869971 1274.56384807 -562.6674881 1315.39305115 C-560.92381195 1318.29514065 -559.19926841 1321.20796392 -557.47657013 1324.12254333 C-542.85899845 1348.68330609 -526.29602371 1372.41500388 -507.91016388 1394.31785583 C-506.47118245 1396.08748557 -505.03372674 1397.85835685 -503.59766388 1399.63035583 C-494.37181999 1410.88333152 -484.80198049 1421.73303787 -474.80469513 1432.3056488 C-472.798115 1434.43686445 -470.8062979 1436.58120454 -468.81641388 1438.72801208 C-462.47780437 1445.54854333 -456.17835895 1452.23485743 -449.14063263 1458.34129333 C-446.75557679 1460.45484545 -444.52118416 1462.67266886 -442.28516388 1464.94285583 C-438.32023523 1468.94915765 -434.19646537 1472.66126141 -429.91016388 1476.31785583 C-428.86922531 1477.22214346 -427.82891205 1478.12715115 -426.78907013 1479.03269958 C-419.30447741 1485.52970492 -411.66263772 1491.76740756 -403.82324982 1497.83006287 C-401.78271994 1499.41696806 -399.75597949 1501.02041565 -397.73047638 1502.62644958 C-369.13488626 1525.22132012 -338.19733555 1544.82579746 -306.13233185 1562.11863708 C-304.62099564 1562.93424722 -303.11229161 1563.75474966 -301.60596466 1564.57957458 C-257.26087994 1588.82240358 -208.87520482 1606.97412313 -159.91016388 1619.31785583 C-158.71149689 1619.62030212 -157.5128299 1619.92274841 -156.27783966 1620.23435974 C-126.85866032 1627.56082557 -97.04210256 1632.95695693 -66.91016388 1636.31785583 C-65.6040213 1636.46883728 -64.29787872 1636.61981873 -62.95215607 1636.77537537 C-18.05635982 1641.84067257 29.23070261 1641.57698398 74.08983612 1636.31785583 C75.20739288 1636.19057098 75.20739288 1636.19057098 76.34752655 1636.06071472 C121.25357909 1630.94539157 165.1488209 1621.42830275 208.08983612 1607.31785583 C209.28173553 1606.92872009 210.47363495 1606.53958435 211.70165253 1606.13865662 C289.09343127 1580.70263508 362.10393042 1539.8979826 424.02342987 1486.91551208 C426.74754598 1484.59132842 429.53653605 1482.35862 432.33983612 1480.13035583 C446.32352398 1468.66571529 458.92928624 1455.57572787 471.71483612 1442.81785583 C472.42119202 1442.11417877 473.12754791 1441.41050171 473.85530853 1440.6855011 C475.90785172 1438.63885696 477.95650872 1436.5884039 480.00389862 1434.53660583 C480.61382156 1433.92865677 481.22374451 1433.3207077 481.85214996 1432.69433594 C486.12725666 1428.39659427 490.1362175 1423.91136913 494.08983612 1419.31785583 C495.11214673 1418.15020159 496.13541012 1416.98337994 497.16014862 1415.81785583 C533.99928852 1373.69122992 564.88738831 1327.26621342 590.08983612 1277.31785583 C590.64429413 1276.21973572 591.19875214 1275.1216156 591.7700119 1273.99021912 C626.00808837 1205.71700143 647.6476008 1131.25251072 655.86980438 1055.33470154 C656.08947304 1053.32118389 656.31812556 1051.30882038 656.54735565 1049.29637146 C661.55981847 1004.38926905 661.3031451 957.18824955 656.08983612 912.31785583 C655.96255127 911.20996704 655.96255127 911.20996704 655.83269501 910.07969666 C645.42910605 820.44989125 617.38837918 734.21674432 506.68749237 562.38426208 C504.3633087 559.66014598 502.13060028 556.87115591 499.90233612 554.06785583 C488.43769558 540.08416798 475.34770815 527.47840572 462.58983612 514.69285583 C461.88615906 513.98649994 461.18248199 513.28014404 460.45748138 512.55238342 C458.41083725 510.49984023 456.36038419 508.45118323 454.30858612 506.40379333 C453.39666252 505.48890892 453.39666252 505.48890892 452.46631622 504.55554199 C448.16857455 500.28043529 443.68334942 496.27147446 439.08983612 492.31785583 C437.92218188 491.29554522 436.75536022 490.27228184 435.58983612 489.24754333 C370.46915825 432.30042949 294.86333472 389.33274398 213.08983612 361.31785583 C211.45087372 360.74986267 211.45087372 360.74986267 209.77880096 360.1703949 C144.35438227 337.64931571 74.07092539 327.04775892 4.96483612 327.13035583 C4.01584442 327.13096008 3.06685272 327.13156433 2.0891037 327.13218689 C-73.91046483 327.26213861 -148.93484288 340.81036962 -377.91016388 449.31785583 Z " fill="#000000" transform="translate(978.9101638793945,-0.3178558349609375)"/>
</svg>
